<svg width="76" height="76" viewBox="0 0 76 76" fill="none" xmlns="http://www.w3.org/2000/svg">
<rect width="76" height="76" rx="38" fill="url(#paint0_linear_116_10968)" fill-opacity="0.05"/>
<rect x="8" y="8" width="60" height="60" rx="30" fill="url(#paint1_linear_116_10968)" fill-opacity="0.1"/>
<rect x="8.5" y="8.5" width="59" height="59" rx="29.5" stroke="url(#paint2_linear_116_10968)" stroke-opacity="0.2"/>
<path fill-rule="evenodd" clip-rule="evenodd" d="M34.5 29.25C34.8907 29.25 35.234 29.509 35.3413 29.8846L36.2901 33.2052C36.7053 34.6586 37.8414 35.7947 39.2948 36.2099L42.6154 37.1587C42.991 37.266 43.25 37.6093 43.25 38C43.25 38.3907 42.991 38.734 42.6154 38.8413L39.2948 39.7901C37.8414 40.2053 36.7053 41.3414 36.2901 42.7948L35.3413 46.1154C35.234 46.491 34.8907 46.75 34.5 46.75C34.1093 46.75 33.766 46.491 33.6587 46.1154L32.7099 42.7948C32.2947 41.3414 31.1586 40.2053 29.7052 39.7901L26.3846 38.8413C26.009 38.734 25.75 38.3907 25.75 38C25.75 37.6093 26.009 37.266 26.3846 37.1587L29.7052 36.2099C31.1586 35.7947 32.2947 34.6586 32.7099 33.2052L33.6587 29.8846C33.766 29.509 34.1093 29.25 34.5 29.25Z" fill="#CAFF33"/>
<path fill-rule="evenodd" clip-rule="evenodd" d="M45 25.75C45.4015 25.75 45.7515 26.0233 45.8489 26.4128L46.1509 27.6208C46.4252 28.7181 47.2819 29.5748 48.3792 29.8491L49.5872 30.1511C49.9767 30.2485 50.25 30.5985 50.25 31C50.25 31.4015 49.9767 31.7515 49.5872 31.8489L48.3792 32.1509C47.2819 32.4252 46.4252 33.2819 46.1509 34.3792L45.8489 35.5872C45.7515 35.9767 45.4015 36.25 45 36.25C44.5985 36.25 44.2485 35.9767 44.1511 35.5872L43.8491 34.3792C43.5748 33.2819 42.7181 32.4252 41.6208 32.1509L40.4128 31.8489C40.0233 31.7515 39.75 31.4015 39.75 31C39.75 30.5985 40.0233 30.2485 40.4128 30.1511L41.6208 29.8491C42.7181 29.5748 43.5748 28.7181 43.8491 27.6208L44.1511 26.4128C44.2485 26.0233 44.5985 25.75 45 25.75Z" fill="#CAFF33"/>
<path fill-rule="evenodd" clip-rule="evenodd" d="M43.25 41.5C43.6266 41.5 43.961 41.741 44.0801 42.0983L44.5401 43.4782C44.7142 44.0007 45.1243 44.4108 45.6468 44.5849L47.0267 45.0449C47.384 45.164 47.625 45.4984 47.625 45.875C47.625 46.2516 47.384 46.586 47.0267 46.7051L45.6468 47.1651C45.1243 47.3392 44.7142 47.7493 44.5401 48.2718L44.0801 49.6517C43.961 50.009 43.6266 50.25 43.25 50.25C42.8734 50.25 42.539 50.009 42.4199 49.6517L41.9599 48.2718C41.7858 47.7493 41.3757 47.3392 40.8532 47.1651L39.4733 46.7051C39.116 46.586 38.875 46.2516 38.875 45.875C38.875 45.4984 39.116 45.164 39.4733 45.0449L40.8532 44.5849C41.3757 44.4108 41.7858 44.0007 41.9599 43.4782L42.4199 42.0983C42.539 41.741 42.8734 41.5 43.25 41.5Z" fill="#CAFF33"/>
<defs>
<linearGradient id="paint0_linear_116_10968" x1="38" y1="0" x2="38" y2="76" gradientUnits="userSpaceOnUse">
<stop stop-color="#CAFF33"/>
<stop offset="1" stop-color="#CAFF33" stop-opacity="0"/>
</linearGradient>
<linearGradient id="paint1_linear_116_10968" x1="38" y1="-31.7297" x2="38" y2="162.865" gradientUnits="userSpaceOnUse">
<stop stop-color="#CAFF33"/>
<stop offset="0.467671" stop-color="#CAFF33" stop-opacity="0"/>
</linearGradient>
<linearGradient id="paint2_linear_116_10968" x1="38" y1="-96.1892" x2="38" y2="122.324" gradientUnits="userSpaceOnUse">
<stop stop-color="#CAFF33"/>
<stop offset="0.716291" stop-color="#CAFF33" stop-opacity="0"/>
</linearGradient>
</defs>
</svg>
