<svg width="646" height="192" viewBox="0 0 646 192" fill="none" xmlns="http://www.w3.org/2000/svg">
<path d="M11.28 36L0.816 2.4H7.344L13.296 22.224C13.488 22.832 13.664 23.504 13.824 24.24C13.984 24.976 14.128 25.712 14.256 26.448C14.384 27.152 14.496 27.808 14.592 28.416C14.688 29.024 14.784 29.536 14.88 29.952L13.584 29.904C13.968 28.4 14.272 27.184 14.496 26.256C14.72 25.328 14.912 24.56 15.072 23.952C15.264 23.312 15.456 22.72 15.648 22.176L21.312 7.68H26.64L32.16 22.176C32.48 23.072 32.768 23.936 33.024 24.768C33.28 25.568 33.488 26.368 33.648 27.168C33.84 27.936 34.016 28.736 34.176 29.568L33.024 29.808C33.152 29.04 33.248 28.416 33.312 27.936C33.376 27.456 33.44 27.024 33.504 26.64C33.568 26.256 33.632 25.888 33.696 25.536C33.76 25.152 33.856 24.704 33.984 24.192C34.144 23.648 34.336 22.96 34.56 22.128L40.464 2.4H46.944L36.432 36H31.92L23.376 15.552L23.952 15.744L15.84 36H11.28ZM61.8589 36.48C59.2029 36.48 56.8509 35.92 54.8029 34.8C52.7869 33.68 51.2029 32.16 50.0509 30.24C48.9309 28.288 48.3709 26.064 48.3709 23.568C48.3709 21.584 48.6909 19.776 49.3309 18.144C49.9709 16.512 50.8509 15.104 51.9709 13.92C53.1229 12.704 54.4829 11.776 56.0509 11.136C57.6509 10.464 59.3949 10.128 61.2829 10.128C62.9469 10.128 64.4989 10.448 65.9389 11.088C67.3789 11.728 68.6269 12.608 69.6829 13.728C70.7389 14.816 71.5389 16.128 72.0829 17.664C72.6589 19.168 72.9309 20.816 72.8989 22.608L72.8509 24.672H52.3549L51.2509 20.64H67.9069L67.1389 21.456V20.4C67.0429 19.408 66.7229 18.544 66.1789 17.808C65.6349 17.04 64.9309 16.448 64.0669 16.032C63.2349 15.584 62.3069 15.36 61.2829 15.36C59.7149 15.36 58.3869 15.664 57.2989 16.272C56.2429 16.88 55.4429 17.76 54.8989 18.912C54.3549 20.032 54.0829 21.44 54.0829 23.136C54.0829 24.768 54.4189 26.192 55.0909 27.408C55.7949 28.624 56.7709 29.568 58.0189 30.24C59.2989 30.88 60.7869 31.2 62.4829 31.2C63.6669 31.2 64.7549 31.008 65.7469 30.624C66.7389 30.24 67.8109 29.552 68.9629 28.56L71.8909 32.64C71.0269 33.44 70.0349 34.128 68.9149 34.704C67.8269 35.248 66.6749 35.68 65.4589 36C64.2429 36.32 63.0429 36.48 61.8589 36.48ZM78.1759 36V0.48H84.1279V36H78.1759ZM101.445 36.48C99.0766 36.48 96.9486 35.904 95.0606 34.752C93.1726 33.6 91.6846 32.032 90.5966 30.048C89.5086 28.064 88.9646 25.824 88.9646 23.328C88.9646 20.832 89.5086 18.592 90.5966 16.608C91.6846 14.624 93.1726 13.056 95.0606 11.904C96.9486 10.752 99.0766 10.176 101.445 10.176C103.717 10.176 105.781 10.608 107.637 11.472C109.493 12.336 110.933 13.536 111.957 15.072L108.693 19.008C108.213 18.336 107.605 17.728 106.869 17.184C106.133 16.64 105.349 16.208 104.517 15.888C103.685 15.568 102.853 15.408 102.021 15.408C100.613 15.408 99.3486 15.76 98.2286 16.464C97.1406 17.136 96.2766 18.08 95.6366 19.296C94.9966 20.48 94.6766 21.824 94.6766 23.328C94.6766 24.832 94.9966 26.176 95.6366 27.36C96.3086 28.544 97.2046 29.488 98.3246 30.192C99.4446 30.896 100.693 31.248 102.069 31.248C102.901 31.248 103.701 31.12 104.469 30.864C105.269 30.576 106.021 30.176 106.725 29.664C107.429 29.152 108.085 28.512 108.693 27.744L111.957 31.728C110.869 33.136 109.365 34.288 107.445 35.184C105.557 36.048 103.557 36.48 101.445 36.48ZM128.04 36.48C125.512 36.48 123.256 35.92 121.272 34.8C119.288 33.648 117.72 32.08 116.568 30.096C115.416 28.112 114.84 25.856 114.84 23.328C114.84 20.8 115.416 18.544 116.568 16.56C117.72 14.576 119.288 13.024 121.272 11.904C123.256 10.752 125.512 10.176 128.04 10.176C130.536 10.176 132.776 10.752 134.76 11.904C136.744 13.024 138.296 14.576 139.416 16.56C140.568 18.544 141.144 20.8 141.144 23.328C141.144 25.856 140.568 28.112 139.416 30.096C138.296 32.08 136.744 33.648 134.76 34.8C132.776 35.92 130.536 36.48 128.04 36.48ZM128.04 31.248C129.416 31.248 130.632 30.896 131.688 30.192C132.776 29.488 133.624 28.544 134.232 27.36C134.872 26.176 135.176 24.832 135.144 23.328C135.176 21.792 134.872 20.432 134.232 19.248C133.624 18.064 132.776 17.136 131.688 16.464C130.632 15.76 129.416 15.408 128.04 15.408C126.664 15.408 125.416 15.76 124.296 16.464C123.208 17.136 122.36 18.08 121.752 19.296C121.144 20.48 120.84 21.824 120.84 23.328C120.84 24.832 121.144 26.176 121.752 27.36C122.36 28.544 123.208 29.488 124.296 30.192C125.416 30.896 126.664 31.248 128.04 31.248ZM146.329 36V10.704H152.137L152.233 15.792L151.273 16.176C151.561 15.344 151.993 14.576 152.569 13.872C153.145 13.136 153.833 12.512 154.633 12C155.433 11.456 156.281 11.04 157.177 10.752C158.073 10.432 158.985 10.272 159.913 10.272C161.289 10.272 162.505 10.496 163.561 10.944C164.649 11.36 165.545 12.032 166.249 12.96C166.985 13.888 167.529 15.072 167.881 16.512L166.969 16.32L167.353 15.552C167.705 14.784 168.201 14.096 168.841 13.488C169.481 12.848 170.201 12.288 171.001 11.808C171.801 11.296 172.633 10.912 173.497 10.656C174.393 10.4 175.273 10.272 176.137 10.272C178.057 10.272 179.657 10.656 180.937 11.424C182.217 12.192 183.177 13.36 183.817 14.928C184.457 16.496 184.777 18.432 184.777 20.736V36H178.825V21.12C178.825 19.84 178.649 18.784 178.297 17.952C177.977 17.12 177.465 16.512 176.761 16.128C176.089 15.712 175.241 15.504 174.217 15.504C173.417 15.504 172.649 15.648 171.913 15.936C171.209 16.192 170.601 16.576 170.089 17.088C169.577 17.568 169.177 18.128 168.889 18.768C168.601 19.408 168.457 20.112 168.457 20.88V36H162.505V21.072C162.505 19.856 162.329 18.848 161.977 18.048C161.625 17.216 161.113 16.592 160.441 16.176C159.769 15.728 158.953 15.504 157.993 15.504C157.193 15.504 156.441 15.648 155.737 15.936C155.033 16.192 154.425 16.56 153.913 17.04C153.401 17.52 153.001 18.08 152.713 18.72C152.425 19.36 152.281 20.064 152.281 20.832V36H146.329ZM203.187 36.48C200.531 36.48 198.179 35.92 196.131 34.8C194.115 33.68 192.531 32.16 191.379 30.24C190.259 28.288 189.699 26.064 189.699 23.568C189.699 21.584 190.019 19.776 190.659 18.144C191.299 16.512 192.179 15.104 193.299 13.92C194.451 12.704 195.811 11.776 197.379 11.136C198.979 10.464 200.723 10.128 202.611 10.128C204.275 10.128 205.827 10.448 207.267 11.088C208.707 11.728 209.955 12.608 211.011 13.728C212.067 14.816 212.867 16.128 213.411 17.664C213.987 19.168 214.259 20.816 214.227 22.608L214.179 24.672H193.683L192.579 20.64H209.235L208.467 21.456V20.4C208.371 19.408 208.051 18.544 207.507 17.808C206.963 17.04 206.259 16.448 205.395 16.032C204.563 15.584 203.635 15.36 202.611 15.36C201.043 15.36 199.715 15.664 198.627 16.272C197.571 16.88 196.771 17.76 196.227 18.912C195.683 20.032 195.411 21.44 195.411 23.136C195.411 24.768 195.747 26.192 196.419 27.408C197.123 28.624 198.099 29.568 199.347 30.24C200.627 30.88 202.115 31.2 203.811 31.2C204.995 31.2 206.083 31.008 207.075 30.624C208.067 30.24 209.139 29.552 210.291 28.56L213.219 32.64C212.355 33.44 211.363 34.128 210.243 34.704C209.155 35.248 208.003 35.68 206.787 36C205.571 36.32 204.371 36.48 203.187 36.48ZM236.301 36V4.272H242.205V36H236.301ZM231.309 16.176V10.704H247.725V16.176H231.309ZM263.555 36.48C261.027 36.48 258.771 35.92 256.787 34.8C254.803 33.648 253.235 32.08 252.083 30.096C250.931 28.112 250.355 25.856 250.355 23.328C250.355 20.8 250.931 18.544 252.083 16.56C253.235 14.576 254.803 13.024 256.787 11.904C258.771 10.752 261.027 10.176 263.555 10.176C266.051 10.176 268.291 10.752 270.275 11.904C272.259 13.024 273.811 14.576 274.931 16.56C276.083 18.544 276.659 20.8 276.659 23.328C276.659 25.856 276.083 28.112 274.931 30.096C273.811 32.08 272.259 33.648 270.275 34.8C268.291 35.92 266.051 36.48 263.555 36.48ZM263.555 31.248C264.931 31.248 266.147 30.896 267.203 30.192C268.291 29.488 269.139 28.544 269.747 27.36C270.387 26.176 270.691 24.832 270.659 23.328C270.691 21.792 270.387 20.432 269.747 19.248C269.139 18.064 268.291 17.136 267.203 16.464C266.147 15.76 264.931 15.408 263.555 15.408C262.179 15.408 260.931 15.76 259.811 16.464C258.723 17.136 257.875 18.08 257.267 19.296C256.659 20.48 256.355 21.824 256.355 23.328C256.355 24.832 256.659 26.176 257.267 27.36C257.875 28.544 258.723 29.488 259.811 30.192C260.931 30.896 262.179 31.248 263.555 31.248ZM306.034 36V19.248L306.37 21.6L292.786 2.4H300.082L310.45 17.28L308.194 17.136L317.554 2.4H324.562L311.554 22.128L312.274 18.864V36H306.034ZM335.93 36.48C333.402 36.48 331.146 35.92 329.162 34.8C327.178 33.648 325.61 32.08 324.458 30.096C323.306 28.112 322.73 25.856 322.73 23.328C322.73 20.8 323.306 18.544 324.458 16.56C325.61 14.576 327.178 13.024 329.162 11.904C331.146 10.752 333.402 10.176 335.93 10.176C338.426 10.176 340.666 10.752 342.65 11.904C344.634 13.024 346.186 14.576 347.306 16.56C348.458 18.544 349.034 20.8 349.034 23.328C349.034 25.856 348.458 28.112 347.306 30.096C346.186 32.08 344.634 33.648 342.65 34.8C340.666 35.92 338.426 36.48 335.93 36.48ZM335.93 31.248C337.306 31.248 338.522 30.896 339.578 30.192C340.666 29.488 341.514 28.544 342.122 27.36C342.762 26.176 343.066 24.832 343.034 23.328C343.066 21.792 342.762 20.432 342.122 19.248C341.514 18.064 340.666 17.136 339.578 16.464C338.522 15.76 337.306 15.408 335.93 15.408C334.554 15.408 333.306 15.76 332.186 16.464C331.098 17.136 330.25 18.08 329.642 19.296C329.034 20.48 328.73 21.824 328.73 23.328C328.73 24.832 329.034 26.176 329.642 27.36C330.25 28.544 331.098 29.488 332.186 30.192C333.306 30.896 334.554 31.248 335.93 31.248ZM363.099 36.48C361.275 36.48 359.691 36.08 358.347 35.28C357.003 34.448 355.979 33.28 355.275 31.776C354.571 30.24 354.219 28.416 354.219 26.304V10.704H360.123V25.056C360.123 26.4 360.331 27.552 360.747 28.512C361.163 29.44 361.771 30.16 362.571 30.672C363.371 31.184 364.331 31.44 365.451 31.44C366.283 31.44 367.035 31.312 367.707 31.056C368.411 30.768 369.019 30.384 369.531 29.904C370.043 29.392 370.443 28.8 370.731 28.128C371.019 27.424 371.163 26.672 371.163 25.872V10.704H377.067V36H371.307L371.211 30.72L372.267 30.144C371.883 31.36 371.227 32.448 370.299 33.408C369.403 34.336 368.331 35.088 367.083 35.664C365.835 36.208 364.507 36.48 363.099 36.48ZM383.987 36V10.704H389.795L389.891 18.768L389.075 16.944C389.427 15.664 390.035 14.512 390.899 13.488C391.763 12.464 392.755 11.664 393.875 11.088C395.027 10.48 396.227 10.176 397.475 10.176C398.019 10.176 398.531 10.224 399.011 10.32C399.523 10.416 399.939 10.528 400.259 10.656L398.675 17.136C398.323 16.944 397.891 16.784 397.379 16.656C396.867 16.528 396.355 16.464 395.843 16.464C395.043 16.464 394.275 16.624 393.539 16.944C392.835 17.232 392.211 17.648 391.667 18.192C391.123 18.736 390.691 19.376 390.371 20.112C390.083 20.816 389.939 21.616 389.939 22.512V36H383.987ZM405.246 36V2.4H419.55C421.758 2.4 423.614 2.72 425.118 3.36C426.654 4 427.806 4.96 428.574 6.24C429.374 7.488 429.774 9.008 429.774 10.8C429.774 12.656 429.278 14.224 428.286 15.504C427.294 16.784 425.902 17.664 424.11 18.144L424.062 17.184C425.566 17.504 426.878 18.08 427.998 18.912C429.118 19.712 429.982 20.72 430.59 21.936C431.23 23.12 431.55 24.48 431.55 26.016C431.55 27.648 431.278 29.088 430.734 30.336C430.222 31.584 429.454 32.624 428.43 33.456C427.406 34.288 426.19 34.928 424.782 35.376C423.374 35.792 421.79 36 420.03 36H405.246ZM411.342 30.384H419.742C420.926 30.384 421.918 30.208 422.718 29.856C423.55 29.504 424.174 28.992 424.59 28.32C425.038 27.616 425.262 26.784 425.262 25.824C425.262 24.928 425.022 24.16 424.542 23.52C424.094 22.88 423.438 22.4 422.574 22.08C421.71 21.728 420.686 21.552 419.502 21.552H411.342V30.384ZM411.342 16.176H418.974C419.902 16.176 420.702 16 421.374 15.648C422.078 15.296 422.622 14.816 423.006 14.208C423.39 13.6 423.582 12.896 423.582 12.096C423.582 10.816 423.15 9.824 422.286 9.12C421.422 8.384 420.158 8.016 418.494 8.016H411.342V16.176ZM446.742 36.48C444.662 36.48 442.774 35.904 441.078 34.752C439.382 33.6 438.022 32.032 436.998 30.048C435.974 28.064 435.462 25.808 435.462 23.28C435.462 20.752 435.974 18.496 436.998 16.512C438.022 14.528 439.414 12.976 441.174 11.856C442.934 10.736 444.918 10.176 447.126 10.176C448.406 10.176 449.574 10.368 450.63 10.752C451.686 11.104 452.614 11.616 453.414 12.288C454.214 12.96 454.87 13.728 455.382 14.592C455.926 15.456 456.294 16.384 456.486 17.376L455.19 17.04V10.704H461.142V36H455.142V29.952L456.534 29.712C456.31 30.576 455.894 31.424 455.286 32.256C454.71 33.056 453.974 33.776 453.078 34.416C452.214 35.024 451.238 35.52 450.15 35.904C449.094 36.288 447.958 36.48 446.742 36.48ZM448.374 31.248C449.75 31.248 450.966 30.912 452.022 30.24C453.078 29.568 453.894 28.64 454.47 27.456C455.078 26.24 455.382 24.848 455.382 23.28C455.382 21.744 455.078 20.384 454.47 19.2C453.894 18.016 453.078 17.088 452.022 16.416C450.966 15.744 449.75 15.408 448.374 15.408C446.998 15.408 445.782 15.744 444.726 16.416C443.702 17.088 442.902 18.016 442.326 19.2C441.75 20.384 441.462 21.744 441.462 23.28C441.462 24.848 441.75 26.24 442.326 27.456C442.902 28.64 443.702 29.568 444.726 30.24C445.782 30.912 446.998 31.248 448.374 31.248ZM467.987 36V10.704H473.747L473.843 15.888L472.739 16.464C473.059 15.312 473.683 14.272 474.611 13.344C475.539 12.384 476.643 11.616 477.923 11.04C479.203 10.464 480.515 10.176 481.859 10.176C483.779 10.176 485.379 10.56 486.659 11.328C487.971 12.096 488.947 13.248 489.587 14.784C490.259 16.32 490.595 18.24 490.595 20.544V36H484.691V20.976C484.691 19.696 484.515 18.64 484.163 17.808C483.811 16.944 483.267 16.32 482.531 15.936C481.795 15.52 480.899 15.328 479.843 15.36C478.979 15.36 478.179 15.504 477.443 15.792C476.739 16.048 476.115 16.432 475.571 16.944C475.059 17.424 474.643 17.984 474.323 18.624C474.035 19.264 473.891 19.968 473.891 20.736V36H470.963C470.387 36 469.843 36 469.331 36C468.851 36 468.403 36 467.987 36ZM502.757 28.272L501.605 22.752L513.605 10.704H521.477L502.757 28.272ZM497.237 36V0.48H503.141V36H497.237ZM514.325 36L505.013 24.72L509.189 21.168L521.621 36H514.325ZM4.512 108V74.4H26.496V80.064H10.656V102.336H26.688V108H4.512ZM7.392 93.6V88.032H24.048V93.6H7.392ZM33.36 108V82.704H39.168L39.264 87.792L38.304 88.176C38.592 87.344 39.024 86.576 39.6 85.872C40.176 85.136 40.864 84.512 41.664 84C42.464 83.456 43.312 83.04 44.208 82.752C45.104 82.432 46.016 82.272 46.944 82.272C48.32 82.272 49.536 82.496 50.592 82.944C51.68 83.36 52.576 84.032 53.28 84.96C54.016 85.888 54.56 87.072 54.912 88.512L54 88.32L54.384 87.552C54.736 86.784 55.232 86.096 55.872 85.488C56.512 84.848 57.232 84.288 58.032 83.808C58.832 83.296 59.664 82.912 60.528 82.656C61.424 82.4 62.304 82.272 63.168 82.272C65.088 82.272 66.688 82.656 67.968 83.424C69.248 84.192 70.208 85.36 70.848 86.928C71.488 88.496 71.808 90.432 71.808 92.736V108H65.856V93.12C65.856 91.84 65.68 90.784 65.328 89.952C65.008 89.12 64.496 88.512 63.792 88.128C63.12 87.712 62.272 87.504 61.248 87.504C60.448 87.504 59.68 87.648 58.944 87.936C58.24 88.192 57.632 88.576 57.12 89.088C56.608 89.568 56.208 90.128 55.92 90.768C55.632 91.408 55.488 92.112 55.488 92.88V108H49.536V93.072C49.536 91.856 49.36 90.848 49.008 90.048C48.656 89.216 48.144 88.592 47.472 88.176C46.8 87.728 45.984 87.504 45.024 87.504C44.224 87.504 43.472 87.648 42.768 87.936C42.064 88.192 41.456 88.56 40.944 89.04C40.432 89.52 40.032 90.08 39.744 90.72C39.456 91.36 39.312 92.064 39.312 92.832V108H33.36ZM78.3623 118.56V82.704H84.1703L84.2663 88.464L83.2583 88.032C83.4503 87.04 83.9943 86.112 84.8903 85.248C85.7863 84.352 86.8743 83.632 88.1543 83.088C89.4663 82.544 90.8263 82.272 92.2343 82.272C94.4743 82.272 96.4583 82.832 98.1863 83.952C99.9463 85.072 101.322 86.608 102.314 88.56C103.338 90.512 103.85 92.768 103.85 95.328C103.85 97.856 103.338 100.112 102.314 102.096C101.322 104.048 99.9463 105.6 98.1863 106.752C96.4583 107.872 94.5063 108.432 92.3303 108.432C90.8583 108.432 89.4343 108.144 88.0583 107.568C86.7143 106.992 85.5623 106.24 84.6023 105.312C83.6743 104.384 83.0983 103.408 82.8743 102.384L84.3143 101.712V118.56H78.3623ZM91.1303 103.2C92.4743 103.2 93.6743 102.864 94.7303 102.192C95.7863 101.52 96.6023 100.592 97.1783 99.408C97.7863 98.224 98.0903 96.864 98.0903 95.328C98.0903 93.792 97.8023 92.448 97.2263 91.296C96.6503 90.112 95.8343 89.184 94.7783 88.512C93.7223 87.84 92.5063 87.504 91.1303 87.504C89.7223 87.504 88.4903 87.84 87.4343 88.512C86.4103 89.152 85.5943 90.064 84.9863 91.248C84.3783 92.432 84.0743 93.792 84.0743 95.328C84.0743 96.864 84.3783 98.224 84.9863 99.408C85.5943 100.592 86.4103 101.52 87.4343 102.192C88.4903 102.864 89.7223 103.2 91.1303 103.2ZM120.68 108.48C118.152 108.48 115.896 107.92 113.912 106.8C111.928 105.648 110.36 104.08 109.208 102.096C108.056 100.112 107.48 97.856 107.48 95.328C107.48 92.8 108.056 90.544 109.208 88.56C110.36 86.576 111.928 85.024 113.912 83.904C115.896 82.752 118.152 82.176 120.68 82.176C123.176 82.176 125.416 82.752 127.4 83.904C129.384 85.024 130.936 86.576 132.056 88.56C133.208 90.544 133.784 92.8 133.784 95.328C133.784 97.856 133.208 100.112 132.056 102.096C130.936 104.08 129.384 105.648 127.4 106.8C125.416 107.92 123.176 108.48 120.68 108.48ZM120.68 103.248C122.056 103.248 123.272 102.896 124.328 102.192C125.416 101.488 126.264 100.544 126.872 99.36C127.512 98.176 127.816 96.832 127.784 95.328C127.816 93.792 127.512 92.432 126.872 91.248C126.264 90.064 125.416 89.136 124.328 88.464C123.272 87.76 122.056 87.408 120.68 87.408C119.304 87.408 118.056 87.76 116.936 88.464C115.848 89.136 115 90.08 114.392 91.296C113.784 92.48 113.48 93.824 113.48 95.328C113.48 96.832 113.784 98.176 114.392 99.36C115 100.544 115.848 101.488 116.936 102.192C118.056 102.896 119.304 103.248 120.68 103.248ZM144.08 108L135.584 82.704L141.632 82.656L147.296 100.704L146.24 100.608L152.384 86.496H155.936L162.224 100.608L160.976 100.752L166.688 82.704H172.736L164.192 108H159.968L153.488 92.832L154.4 92.928L148.256 108H144.08ZM188.234 108.48C185.578 108.48 183.226 107.92 181.178 106.8C179.162 105.68 177.578 104.16 176.426 102.24C175.306 100.288 174.746 98.064 174.746 95.568C174.746 93.584 175.066 91.776 175.706 90.144C176.346 88.512 177.226 87.104 178.346 85.92C179.498 84.704 180.858 83.776 182.426 83.136C184.026 82.464 185.77 82.128 187.658 82.128C189.322 82.128 190.874 82.448 192.314 83.088C193.754 83.728 195.002 84.608 196.058 85.728C197.114 86.816 197.914 88.128 198.458 89.664C199.034 91.168 199.306 92.816 199.274 94.608L199.226 96.672H178.73L177.626 92.64H194.282L193.514 93.456V92.4C193.418 91.408 193.098 90.544 192.554 89.808C192.01 89.04 191.306 88.448 190.442 88.032C189.61 87.584 188.682 87.36 187.658 87.36C186.09 87.36 184.762 87.664 183.674 88.272C182.618 88.88 181.818 89.76 181.274 90.912C180.73 92.032 180.458 93.44 180.458 95.136C180.458 96.768 180.794 98.192 181.466 99.408C182.17 100.624 183.146 101.568 184.394 102.24C185.674 102.88 187.162 103.2 188.858 103.2C190.042 103.2 191.13 103.008 192.122 102.624C193.114 102.24 194.186 101.552 195.338 100.56L198.266 104.64C197.402 105.44 196.41 106.128 195.29 106.704C194.202 107.248 193.05 107.68 191.834 108C190.618 108.32 189.418 108.48 188.234 108.48ZM204.503 108V82.704H210.311L210.407 90.768L209.591 88.944C209.943 87.664 210.551 86.512 211.415 85.488C212.279 84.464 213.271 83.664 214.391 83.088C215.543 82.48 216.743 82.176 217.991 82.176C218.535 82.176 219.047 82.224 219.527 82.32C220.039 82.416 220.455 82.528 220.775 82.656L219.191 89.136C218.839 88.944 218.407 88.784 217.895 88.656C217.383 88.528 216.871 88.464 216.359 88.464C215.559 88.464 214.791 88.624 214.055 88.944C213.351 89.232 212.727 89.648 212.183 90.192C211.639 90.736 211.207 91.376 210.887 92.112C210.599 92.816 210.455 93.616 210.455 94.512V108H204.503ZM225.378 108V82.704H231.282V108H225.378ZM228.258 77.328C227.074 77.328 226.146 77.04 225.474 76.464C224.834 75.856 224.514 75.008 224.514 73.92C224.514 72.896 224.85 72.064 225.522 71.424C226.194 70.784 227.106 70.464 228.258 70.464C229.474 70.464 230.402 70.768 231.042 71.376C231.714 71.952 232.05 72.8 232.05 73.92C232.05 74.912 231.714 75.728 231.042 76.368C230.37 77.008 229.442 77.328 228.258 77.328ZM238.769 108V82.704H244.529L244.625 87.888L243.521 88.464C243.841 87.312 244.465 86.272 245.393 85.344C246.321 84.384 247.425 83.616 248.705 83.04C249.985 82.464 251.297 82.176 252.641 82.176C254.561 82.176 256.161 82.56 257.441 83.328C258.753 84.096 259.729 85.248 260.369 86.784C261.041 88.32 261.377 90.24 261.377 92.544V108H255.473V92.976C255.473 91.696 255.297 90.64 254.945 89.808C254.593 88.944 254.049 88.32 253.313 87.936C252.577 87.52 251.681 87.328 250.625 87.36C249.761 87.36 248.961 87.504 248.225 87.792C247.521 88.048 246.897 88.432 246.353 88.944C245.841 89.424 245.425 89.984 245.105 90.624C244.817 91.264 244.673 91.968 244.673 92.736V108H241.745C241.169 108 240.625 108 240.113 108C239.633 108 239.185 108 238.769 108ZM279.395 119.04C277.507 119.04 275.619 118.752 273.731 118.176C271.875 117.6 270.371 116.848 269.219 115.92L271.331 111.552C272.003 112.032 272.755 112.448 273.587 112.8C274.419 113.152 275.299 113.424 276.227 113.616C277.187 113.808 278.131 113.904 279.059 113.904C280.755 113.904 282.163 113.632 283.283 113.088C284.435 112.576 285.299 111.776 285.875 110.688C286.451 109.632 286.739 108.304 286.739 106.704V102.048L287.603 102.384C287.411 103.376 286.883 104.32 286.019 105.216C285.155 106.112 284.067 106.848 282.755 107.424C281.443 107.968 280.099 108.24 278.723 108.24C276.323 108.24 274.195 107.68 272.339 106.56C270.515 105.44 269.059 103.92 267.971 102C266.915 100.048 266.387 97.808 266.387 95.28C266.387 92.752 266.915 90.512 267.971 88.56C269.027 86.576 270.467 85.024 272.291 83.904C274.147 82.752 276.227 82.176 278.531 82.176C279.491 82.176 280.419 82.288 281.315 82.512C282.211 82.736 283.027 83.056 283.763 83.472C284.531 83.888 285.219 84.352 285.827 84.864C286.435 85.376 286.931 85.92 287.315 86.496C287.699 87.072 287.939 87.632 288.035 88.176L286.787 88.56L286.883 82.704H292.691V106.272C292.691 108.32 292.387 110.128 291.779 111.696C291.171 113.264 290.291 114.592 289.139 115.68C287.987 116.8 286.595 117.632 284.963 118.176C283.331 118.752 281.475 119.04 279.395 119.04ZM279.635 103.2C281.075 103.2 282.339 102.864 283.427 102.192C284.547 101.52 285.411 100.592 286.019 99.408C286.627 98.224 286.931 96.864 286.931 95.328C286.931 93.76 286.611 92.384 285.971 91.2C285.363 89.984 284.515 89.04 283.427 88.368C282.339 87.696 281.075 87.36 279.635 87.36C278.195 87.36 276.931 87.712 275.843 88.416C274.755 89.088 273.891 90.032 273.251 91.248C272.643 92.432 272.339 93.792 272.339 95.328C272.339 96.832 272.643 98.192 273.251 99.408C273.891 100.592 274.755 101.52 275.843 102.192C276.931 102.864 278.195 103.2 279.635 103.2ZM323.612 108V91.248L323.948 93.6L310.364 74.4H317.66L328.028 89.28L325.772 89.136L335.132 74.4H342.14L329.132 94.128L329.852 90.864V108H323.612ZM353.508 108.48C350.98 108.48 348.724 107.92 346.74 106.8C344.756 105.648 343.188 104.08 342.036 102.096C340.884 100.112 340.308 97.856 340.308 95.328C340.308 92.8 340.884 90.544 342.036 88.56C343.188 86.576 344.756 85.024 346.74 83.904C348.724 82.752 350.98 82.176 353.508 82.176C356.004 82.176 358.244 82.752 360.228 83.904C362.212 85.024 363.764 86.576 364.884 88.56C366.036 90.544 366.612 92.8 366.612 95.328C366.612 97.856 366.036 100.112 364.884 102.096C363.764 104.08 362.212 105.648 360.228 106.8C358.244 107.92 356.004 108.48 353.508 108.48ZM353.508 103.248C354.884 103.248 356.1 102.896 357.156 102.192C358.244 101.488 359.092 100.544 359.7 99.36C360.34 98.176 360.644 96.832 360.612 95.328C360.644 93.792 360.34 92.432 359.7 91.248C359.092 90.064 358.244 89.136 357.156 88.464C356.1 87.76 354.884 87.408 353.508 87.408C352.132 87.408 350.884 87.76 349.764 88.464C348.676 89.136 347.828 90.08 347.22 91.296C346.612 92.48 346.308 93.824 346.308 95.328C346.308 96.832 346.612 98.176 347.22 99.36C347.828 100.544 348.676 101.488 349.764 102.192C350.884 102.896 352.132 103.248 353.508 103.248ZM380.678 108.48C378.854 108.48 377.27 108.08 375.926 107.28C374.582 106.448 373.558 105.28 372.854 103.776C372.15 102.24 371.798 100.416 371.798 98.304V82.704H377.702V97.056C377.702 98.4 377.91 99.552 378.326 100.512C378.742 101.44 379.35 102.16 380.15 102.672C380.95 103.184 381.91 103.44 383.03 103.44C383.862 103.44 384.614 103.312 385.286 103.056C385.99 102.768 386.598 102.384 387.11 101.904C387.622 101.392 388.022 100.8 388.31 100.128C388.598 99.424 388.742 98.672 388.742 97.872V82.704H394.646V108H388.886L388.79 102.72L389.846 102.144C389.462 103.36 388.806 104.448 387.878 105.408C386.982 106.336 385.91 107.088 384.662 107.664C383.414 108.208 382.086 108.48 380.678 108.48ZM401.565 108V82.704H407.373L407.469 90.768L406.653 88.944C407.005 87.664 407.613 86.512 408.477 85.488C409.341 84.464 410.333 83.664 411.453 83.088C412.605 82.48 413.805 82.176 415.053 82.176C415.597 82.176 416.109 82.224 416.589 82.32C417.101 82.416 417.517 82.528 417.837 82.656L416.253 89.136C415.901 88.944 415.469 88.784 414.957 88.656C414.445 88.528 413.933 88.464 413.421 88.464C412.621 88.464 411.853 88.624 411.117 88.944C410.413 89.232 409.789 89.648 409.245 90.192C408.701 90.736 408.269 91.376 407.949 92.112C407.661 92.816 407.517 93.616 407.517 94.512V108H401.565Z" fill="white"/>
<path d="M436.934 108V74.4H443.174V108H436.934ZM439.814 94.224V88.56H457.142V94.224H439.814ZM439.814 80.16V74.4H459.206V80.16H439.814ZM465.753 108V82.704H471.657V108H465.753ZM468.633 77.328C467.449 77.328 466.521 77.04 465.849 76.464C465.209 75.856 464.889 75.008 464.889 73.92C464.889 72.896 465.225 72.064 465.897 71.424C466.569 70.784 467.481 70.464 468.633 70.464C469.849 70.464 470.777 70.768 471.417 71.376C472.089 71.952 472.425 72.8 472.425 73.92C472.425 74.912 472.089 75.728 471.417 76.368C470.745 77.008 469.817 77.328 468.633 77.328ZM479.144 108V82.704H484.904L485 87.888L483.896 88.464C484.216 87.312 484.84 86.272 485.768 85.344C486.696 84.384 487.8 83.616 489.08 83.04C490.36 82.464 491.672 82.176 493.016 82.176C494.936 82.176 496.536 82.56 497.816 83.328C499.128 84.096 500.104 85.248 500.744 86.784C501.416 88.32 501.752 90.24 501.752 92.544V108H495.848V92.976C495.848 91.696 495.672 90.64 495.32 89.808C494.968 88.944 494.424 88.32 493.688 87.936C492.952 87.52 492.056 87.328 491 87.36C490.136 87.36 489.336 87.504 488.6 87.792C487.896 88.048 487.272 88.432 486.728 88.944C486.216 89.424 485.8 89.984 485.48 90.624C485.192 91.264 485.048 91.968 485.048 92.736V108H482.12C481.544 108 481 108 480.488 108C480.008 108 479.56 108 479.144 108ZM517.946 108.48C515.866 108.48 513.978 107.904 512.282 106.752C510.586 105.6 509.226 104.032 508.202 102.048C507.178 100.064 506.666 97.808 506.666 95.28C506.666 92.752 507.178 90.496 508.202 88.512C509.226 86.528 510.618 84.976 512.378 83.856C514.138 82.736 516.122 82.176 518.33 82.176C519.61 82.176 520.778 82.368 521.834 82.752C522.89 83.104 523.818 83.616 524.618 84.288C525.418 84.96 526.074 85.728 526.586 86.592C527.13 87.456 527.498 88.384 527.69 89.376L526.394 89.04V82.704H532.346V108H526.346V101.952L527.738 101.712C527.514 102.576 527.098 103.424 526.49 104.256C525.914 105.056 525.178 105.776 524.282 106.416C523.418 107.024 522.442 107.52 521.354 107.904C520.298 108.288 519.162 108.48 517.946 108.48ZM519.578 103.248C520.954 103.248 522.17 102.912 523.226 102.24C524.282 101.568 525.098 100.64 525.674 99.456C526.282 98.24 526.586 96.848 526.586 95.28C526.586 93.744 526.282 92.384 525.674 91.2C525.098 90.016 524.282 89.088 523.226 88.416C522.17 87.744 520.954 87.408 519.578 87.408C518.202 87.408 516.986 87.744 515.93 88.416C514.906 89.088 514.106 90.016 513.53 91.2C512.954 92.384 512.666 93.744 512.666 95.28C512.666 96.848 512.954 98.24 513.53 99.456C514.106 100.64 514.906 101.568 515.93 102.24C516.986 102.912 518.202 103.248 519.578 103.248ZM539.19 108V82.704H544.95L545.046 87.888L543.942 88.464C544.262 87.312 544.886 86.272 545.814 85.344C546.742 84.384 547.846 83.616 549.126 83.04C550.406 82.464 551.718 82.176 553.062 82.176C554.982 82.176 556.582 82.56 557.862 83.328C559.174 84.096 560.15 85.248 560.79 86.784C561.462 88.32 561.798 90.24 561.798 92.544V108H555.894V92.976C555.894 91.696 555.718 90.64 555.366 89.808C555.014 88.944 554.47 88.32 553.734 87.936C552.998 87.52 552.102 87.328 551.046 87.36C550.182 87.36 549.382 87.504 548.646 87.792C547.942 88.048 547.318 88.432 546.774 88.944C546.262 89.424 545.846 89.984 545.526 90.624C545.238 91.264 545.094 91.968 545.094 92.736V108H542.166C541.59 108 541.046 108 540.534 108C540.054 108 539.606 108 539.19 108ZM579.288 108.48C576.92 108.48 574.792 107.904 572.904 106.752C571.016 105.6 569.528 104.032 568.44 102.048C567.352 100.064 566.808 97.824 566.808 95.328C566.808 92.832 567.352 90.592 568.44 88.608C569.528 86.624 571.016 85.056 572.904 83.904C574.792 82.752 576.92 82.176 579.288 82.176C581.56 82.176 583.624 82.608 585.48 83.472C587.336 84.336 588.776 85.536 589.8 87.072L586.536 91.008C586.056 90.336 585.448 89.728 584.712 89.184C583.976 88.64 583.192 88.208 582.36 87.888C581.528 87.568 580.696 87.408 579.864 87.408C578.456 87.408 577.192 87.76 576.072 88.464C574.984 89.136 574.12 90.08 573.48 91.296C572.84 92.48 572.52 93.824 572.52 95.328C572.52 96.832 572.84 98.176 573.48 99.36C574.152 100.544 575.048 101.488 576.168 102.192C577.288 102.896 578.536 103.248 579.912 103.248C580.744 103.248 581.544 103.12 582.312 102.864C583.112 102.576 583.864 102.176 584.568 101.664C585.272 101.152 585.928 100.512 586.536 99.744L589.8 103.728C588.712 105.136 587.208 106.288 585.288 107.184C583.4 108.048 581.4 108.48 579.288 108.48ZM594.987 108V82.704H600.891V108H594.987ZM597.867 77.328C596.683 77.328 595.755 77.04 595.083 76.464C594.443 75.856 594.123 75.008 594.123 73.92C594.123 72.896 594.459 72.064 595.131 71.424C595.803 70.784 596.715 70.464 597.867 70.464C599.083 70.464 600.011 70.768 600.651 71.376C601.323 71.952 601.659 72.8 601.659 73.92C601.659 74.912 601.323 75.728 600.651 76.368C599.979 77.008 599.051 77.328 597.867 77.328ZM617.93 108.48C615.85 108.48 613.962 107.904 612.266 106.752C610.57 105.6 609.21 104.032 608.186 102.048C607.162 100.064 606.65 97.808 606.65 95.28C606.65 92.752 607.162 90.496 608.186 88.512C609.21 86.528 610.602 84.976 612.362 83.856C614.122 82.736 616.106 82.176 618.314 82.176C619.594 82.176 620.762 82.368 621.818 82.752C622.874 83.104 623.802 83.616 624.602 84.288C625.402 84.96 626.058 85.728 626.57 86.592C627.114 87.456 627.482 88.384 627.674 89.376L626.378 89.04V82.704H632.33V108H626.33V101.952L627.722 101.712C627.498 102.576 627.082 103.424 626.474 104.256C625.898 105.056 625.162 105.776 624.266 106.416C623.402 107.024 622.426 107.52 621.338 107.904C620.282 108.288 619.146 108.48 617.93 108.48ZM619.562 103.248C620.938 103.248 622.154 102.912 623.21 102.24C624.266 101.568 625.082 100.64 625.658 99.456C626.266 98.24 626.57 96.848 626.57 95.28C626.57 93.744 626.266 92.384 625.658 91.2C625.082 90.016 624.266 89.088 623.21 88.416C622.154 87.744 620.938 87.408 619.562 87.408C618.186 87.408 616.97 87.744 615.914 88.416C614.89 89.088 614.09 90.016 613.514 91.2C612.938 92.384 612.65 93.744 612.65 95.28C612.65 96.848 612.938 98.24 613.514 99.456C614.09 100.64 614.89 101.568 615.914 102.24C616.97 102.912 618.186 103.248 619.562 103.248ZM639.223 108V72.48H645.175V108H639.223ZM12.384 180.48C11.232 180.48 10.144 180.336 9.12 180.048C8.096 179.76 7.152 179.36 6.288 178.848C5.424 178.304 4.656 177.664 3.984 176.928C3.312 176.16 2.72 175.312 2.208 174.384L6 170.496C6.576 171.328 7.12 172.016 7.632 172.56C8.144 173.104 8.624 173.52 9.072 173.808C9.552 174.096 10.032 174.304 10.512 174.432C11.024 174.56 11.536 174.624 12.048 174.624C13.072 174.624 13.968 174.4 14.736 173.952C15.504 173.472 16.096 172.816 16.512 171.984C16.96 171.152 17.184 170.208 17.184 169.152V152.016H10.992V146.4H28.512V152.016H23.328V169.776C23.328 171.344 23.056 172.784 22.512 174.096C21.968 175.376 21.2 176.496 20.208 177.456C19.248 178.416 18.096 179.168 16.752 179.712C15.44 180.224 13.984 180.48 12.384 180.48ZM43.8521 180.48C41.3241 180.48 39.0681 179.92 37.0841 178.8C35.1001 177.648 33.5321 176.08 32.3801 174.096C31.2281 172.112 30.6521 169.856 30.6521 167.328C30.6521 164.8 31.2281 162.544 32.3801 160.56C33.5321 158.576 35.1001 157.024 37.0841 155.904C39.0681 154.752 41.3241 154.176 43.8521 154.176C46.3481 154.176 48.5881 154.752 50.5721 155.904C52.5561 157.024 54.1081 158.576 55.2281 160.56C56.3801 162.544 56.9561 164.8 56.9561 167.328C56.9561 169.856 56.3801 172.112 55.2281 174.096C54.1081 176.08 52.5561 177.648 50.5721 178.8C48.5881 179.92 46.3481 180.48 43.8521 180.48ZM43.8521 175.248C45.2281 175.248 46.4441 174.896 47.5001 174.192C48.5881 173.488 49.4361 172.544 50.0441 171.36C50.6841 170.176 50.9881 168.832 50.9561 167.328C50.9881 165.792 50.6841 164.432 50.0441 163.248C49.4361 162.064 48.5881 161.136 47.5001 160.464C46.4441 159.76 45.2281 159.408 43.8521 159.408C42.4761 159.408 41.2281 159.76 40.1081 160.464C39.0201 161.136 38.1721 162.08 37.5641 163.296C36.9561 164.48 36.6521 165.824 36.6521 167.328C36.6521 168.832 36.9561 170.176 37.5641 171.36C38.1721 172.544 39.0201 173.488 40.1081 174.192C41.2281 174.896 42.4761 175.248 43.8521 175.248ZM71.0213 180.48C69.1973 180.48 67.6133 180.08 66.2693 179.28C64.9253 178.448 63.9013 177.28 63.1973 175.776C62.4933 174.24 62.1413 172.416 62.1413 170.304V154.704H68.0453V169.056C68.0453 170.4 68.2533 171.552 68.6693 172.512C69.0853 173.44 69.6933 174.16 70.4933 174.672C71.2933 175.184 72.2533 175.44 73.3733 175.44C74.2053 175.44 74.9573 175.312 75.6293 175.056C76.3333 174.768 76.9413 174.384 77.4533 173.904C77.9653 173.392 78.3653 172.8 78.6533 172.128C78.9413 171.424 79.0853 170.672 79.0853 169.872V154.704H84.9893V180H79.2293L79.1333 174.72L80.1893 174.144C79.8053 175.36 79.1493 176.448 78.2213 177.408C77.3253 178.336 76.2533 179.088 75.0053 179.664C73.7573 180.208 72.4293 180.48 71.0213 180.48ZM91.9091 180V154.704H97.7171L97.8131 162.768L96.9971 160.944C97.3491 159.664 97.9571 158.512 98.8211 157.488C99.6851 156.464 100.677 155.664 101.797 155.088C102.949 154.48 104.149 154.176 105.397 154.176C105.941 154.176 106.453 154.224 106.933 154.32C107.445 154.416 107.861 154.528 108.181 154.656L106.597 161.136C106.245 160.944 105.813 160.784 105.301 160.656C104.789 160.528 104.277 160.464 103.765 160.464C102.965 160.464 102.197 160.624 101.461 160.944C100.757 161.232 100.133 161.648 99.5891 162.192C99.0451 162.736 98.6131 163.376 98.2931 164.112C98.0051 164.816 97.8611 165.616 97.8611 166.512V180H91.9091ZM112.112 180V154.704H117.872L117.968 159.888L116.864 160.464C117.184 159.312 117.808 158.272 118.736 157.344C119.664 156.384 120.768 155.616 122.048 155.04C123.328 154.464 124.64 154.176 125.984 154.176C127.904 154.176 129.504 154.56 130.784 155.328C132.096 156.096 133.072 157.248 133.712 158.784C134.384 160.32 134.72 162.24 134.72 164.544V180H128.816V164.976C128.816 163.696 128.64 162.64 128.288 161.808C127.936 160.944 127.392 160.32 126.656 159.936C125.92 159.52 125.024 159.328 123.968 159.36C123.104 159.36 122.304 159.504 121.568 159.792C120.864 160.048 120.24 160.432 119.696 160.944C119.184 161.424 118.768 161.984 118.448 162.624C118.16 163.264 118.016 163.968 118.016 164.736V180H115.088C114.512 180 113.968 180 113.456 180C112.976 180 112.528 180 112.112 180ZM153.218 180.48C150.562 180.48 148.21 179.92 146.162 178.8C144.146 177.68 142.562 176.16 141.41 174.24C140.29 172.288 139.73 170.064 139.73 167.568C139.73 165.584 140.05 163.776 140.69 162.144C141.33 160.512 142.21 159.104 143.33 157.92C144.482 156.704 145.842 155.776 147.41 155.136C149.01 154.464 150.754 154.128 152.642 154.128C154.306 154.128 155.858 154.448 157.298 155.088C158.738 155.728 159.986 156.608 161.042 157.728C162.098 158.816 162.898 160.128 163.442 161.664C164.018 163.168 164.29 164.816 164.258 166.608L164.21 168.672H143.714L142.61 164.64H159.266L158.498 165.456V164.4C158.402 163.408 158.082 162.544 157.538 161.808C156.994 161.04 156.29 160.448 155.426 160.032C154.594 159.584 153.666 159.36 152.642 159.36C151.074 159.36 149.746 159.664 148.658 160.272C147.602 160.88 146.802 161.76 146.258 162.912C145.714 164.032 145.442 165.44 145.442 167.136C145.442 168.768 145.778 170.192 146.45 171.408C147.154 172.624 148.13 173.568 149.378 174.24C150.658 174.88 152.146 175.2 153.842 175.2C155.026 175.2 156.114 175.008 157.106 174.624C158.098 174.24 159.17 173.552 160.322 172.56L163.25 176.64C162.386 177.44 161.394 178.128 160.274 178.704C159.186 179.248 158.034 179.68 156.818 180C155.602 180.32 154.402 180.48 153.218 180.48ZM172.859 191.04L178.234 178.608L178.283 182.544L165.803 154.704H172.618L179.579 171.216C179.803 171.632 180.027 172.192 180.251 172.896C180.475 173.568 180.667 174.24 180.827 174.912L179.627 175.296C179.851 174.688 180.091 174.048 180.347 173.376C180.603 172.672 180.843 171.952 181.067 171.216L187.019 154.704H193.883L183.323 180L179.003 191.04H172.859Z" fill="#CAFF33"/>
</svg>
