<svg width="76" height="76" viewBox="0 0 76 76" fill="none" xmlns="http://www.w3.org/2000/svg">
<rect width="76" height="76" rx="38" fill="url(#paint0_linear_116_10959)" fill-opacity="0.05"/>
<rect x="8" y="8" width="60" height="60" rx="30" fill="url(#paint1_linear_116_10959)" fill-opacity="0.1"/>
<rect x="8.5" y="8.5" width="59" height="59" rx="29.5" stroke="url(#paint2_linear_116_10959)" stroke-opacity="0.2"/>
<path d="M37.5852 25.8546C37.8441 25.7151 38.1559 25.7151 38.4148 25.8546L49.7898 31.9796C50.0733 32.1322 50.25 32.4281 50.25 32.75C50.25 33.0719 50.0733 33.3678 49.7898 33.5204L38.4148 39.6454C38.1559 39.7849 37.8441 39.7849 37.5852 39.6454L26.2102 33.5204C25.9267 33.3678 25.75 33.0719 25.75 32.75C25.75 32.4281 25.9267 32.1322 26.2102 31.9796L37.5852 25.8546Z" fill="#CAFF33"/>
<path d="M27.8088 36.3688L36.7555 41.1862C37.5324 41.6046 38.4676 41.6046 39.2445 41.1862L48.1912 36.3688L49.7898 37.2296C50.0733 37.3822 50.25 37.6781 50.25 38C50.25 38.3219 50.0733 38.6178 49.7898 38.7704L38.4148 44.8954C38.1559 45.0349 37.8441 45.0349 37.5852 44.8954L26.2102 38.7704C25.9267 38.6178 25.75 38.3219 25.75 38C25.75 37.6781 25.9267 37.3822 26.2102 37.2296L27.8088 36.3688Z" fill="#CAFF33"/>
<path d="M36.7555 46.4362L27.8088 41.6188L26.2102 42.4796C25.9267 42.6322 25.75 42.9281 25.75 43.25C25.75 43.5719 25.9267 43.8678 26.2102 44.0204L37.5852 50.1454C37.8441 50.2849 38.1559 50.2849 38.4148 50.1454L49.7898 44.0204C50.0733 43.8678 50.25 43.5719 50.25 43.25C50.25 42.9281 50.0733 42.6322 49.7898 42.4796L48.1912 41.6188L39.2445 46.4362C38.4676 46.8546 37.5324 46.8546 36.7555 46.4362Z" fill="#CAFF33"/>
<defs>
<linearGradient id="paint0_linear_116_10959" x1="38" y1="0" x2="38" y2="76" gradientUnits="userSpaceOnUse">
<stop stop-color="#CAFF33"/>
<stop offset="1" stop-color="#CAFF33" stop-opacity="0"/>
</linearGradient>
<linearGradient id="paint1_linear_116_10959" x1="38" y1="-31.7297" x2="38" y2="162.865" gradientUnits="userSpaceOnUse">
<stop stop-color="#CAFF33"/>
<stop offset="0.467671" stop-color="#CAFF33" stop-opacity="0"/>
</linearGradient>
<linearGradient id="paint2_linear_116_10959" x1="38" y1="-96.1892" x2="38" y2="122.324" gradientUnits="userSpaceOnUse">
<stop stop-color="#CAFF33"/>
<stop offset="0.716291" stop-color="#CAFF33" stop-opacity="0"/>
</linearGradient>
</defs>
</svg>
