<svg width="76" height="76" viewBox="0 0 76 76" fill="none" xmlns="http://www.w3.org/2000/svg">
<rect width="76" height="76" rx="38" fill="url(#paint0_linear_116_10951)" fill-opacity="0.05"/>
<rect x="8" y="8" width="60" height="60" rx="30" fill="url(#paint1_linear_116_10951)" fill-opacity="0.1"/>
<rect x="8.5" y="8.5" width="59" height="59" rx="29.5" stroke="url(#paint2_linear_116_10951)" stroke-opacity="0.2"/>
<path d="M31 27.5C29.067 27.5 27.5 29.067 27.5 31V33.625C27.5 35.558 29.067 37.125 31 37.125H33.625C35.558 37.125 37.125 35.558 37.125 33.625V31C37.125 29.067 35.558 27.5 33.625 27.5H31Z" fill="#CAFF33"/>
<path d="M42.375 27.5C40.442 27.5 38.875 29.067 38.875 31V33.625C38.875 35.558 40.442 37.125 42.375 37.125H45C46.933 37.125 48.5 35.558 48.5 33.625V31C48.5 29.067 46.933 27.5 45 27.5H42.375Z" fill="#CAFF33"/>
<path d="M31 38.875C29.067 38.875 27.5 40.442 27.5 42.375V45C27.5 46.933 29.067 48.5 31 48.5H33.625C35.558 48.5 37.125 46.933 37.125 45V42.375C37.125 40.442 35.558 38.875 33.625 38.875H31Z" fill="#CAFF33"/>
<path d="M44.5625 39.75C44.5625 39.2668 44.1707 38.875 43.6875 38.875C43.2043 38.875 42.8125 39.2668 42.8125 39.75V42.8125H39.75C39.2668 42.8125 38.875 43.2043 38.875 43.6875C38.875 44.1707 39.2668 44.5625 39.75 44.5625H42.8125V47.625C42.8125 48.1082 43.2043 48.5 43.6875 48.5C44.1707 48.5 44.5625 48.1082 44.5625 47.625V44.5625H47.625C48.1082 44.5625 48.5 44.1707 48.5 43.6875C48.5 43.2043 48.1082 42.8125 47.625 42.8125H44.5625V39.75Z" fill="#CAFF33"/>
<defs>
<linearGradient id="paint0_linear_116_10951" x1="38" y1="0" x2="38" y2="76" gradientUnits="userSpaceOnUse">
<stop stop-color="#CAFF33"/>
<stop offset="1" stop-color="#CAFF33" stop-opacity="0"/>
</linearGradient>
<linearGradient id="paint1_linear_116_10951" x1="38" y1="-31.7297" x2="38" y2="162.865" gradientUnits="userSpaceOnUse">
<stop stop-color="#CAFF33"/>
<stop offset="0.467671" stop-color="#CAFF33" stop-opacity="0"/>
</linearGradient>
<linearGradient id="paint2_linear_116_10951" x1="38" y1="-96.1892" x2="38" y2="122.324" gradientUnits="userSpaceOnUse">
<stop stop-color="#CAFF33"/>
<stop offset="0.716291" stop-color="#CAFF33" stop-opacity="0"/>
</linearGradient>
</defs>
</svg>
