<svg width="76" height="76" viewBox="0 0 76 76" fill="none" xmlns="http://www.w3.org/2000/svg">
<rect width="76" height="76" rx="38" fill="url(#paint0_linear_116_10976)" fill-opacity="0.05"/>
<rect x="8" y="8" width="60" height="60" rx="30" fill="url(#paint1_linear_116_10976)" fill-opacity="0.1"/>
<rect x="8.5" y="8.5" width="59" height="59" rx="29.5" stroke="url(#paint2_linear_116_10976)" stroke-opacity="0.2"/>
<path fill-rule="evenodd" clip-rule="evenodd" d="M38 26.625C31.7178 26.625 26.625 31.7178 26.625 38C26.625 44.2822 31.7178 49.375 38 49.375C44.2822 49.375 49.375 44.2822 49.375 38C49.375 31.7178 44.2822 26.625 38 26.625ZM34.5 32.75C34.0168 32.75 33.625 33.1418 33.625 33.625C33.625 34.1082 34.0168 34.5 34.5 34.5H36.25C37.3929 34.5 38.3653 35.2305 38.7256 36.25H34.5C34.0168 36.25 33.625 36.6418 33.625 37.125C33.625 37.6082 34.0168 38 34.5 38H38.7256C38.3653 39.0195 37.3929 39.75 36.25 39.75H34.5C34.1461 39.75 33.827 39.9632 33.6916 40.2902C33.5562 40.6171 33.631 40.9935 33.8813 41.2437L37.3813 44.7437C37.723 45.0854 38.277 45.0854 38.6187 44.7437C38.9604 44.402 38.9604 43.848 38.6187 43.5063L36.5987 41.4863C38.5582 41.3318 40.1546 39.8862 40.5375 38H41.5C41.9832 38 42.375 37.6082 42.375 37.125C42.375 36.6418 41.9832 36.25 41.5 36.25H40.5375C40.4062 35.6035 40.1324 35.0087 39.7503 34.5H41.5C41.9832 34.5 42.375 34.1082 42.375 33.625C42.375 33.1418 41.9832 32.75 41.5 32.75H34.5Z" fill="#CAFF33"/>
<defs>
<linearGradient id="paint0_linear_116_10976" x1="38" y1="0" x2="38" y2="76" gradientUnits="userSpaceOnUse">
<stop stop-color="#CAFF33"/>
<stop offset="1" stop-color="#CAFF33" stop-opacity="0"/>
</linearGradient>
<linearGradient id="paint1_linear_116_10976" x1="38" y1="-31.7297" x2="38" y2="162.865" gradientUnits="userSpaceOnUse">
<stop stop-color="#CAFF33"/>
<stop offset="0.467671" stop-color="#CAFF33" stop-opacity="0"/>
</linearGradient>
<linearGradient id="paint2_linear_116_10976" x1="38" y1="-96.1892" x2="38" y2="122.324" gradientUnits="userSpaceOnUse">
<stop stop-color="#CAFF33"/>
<stop offset="0.716291" stop-color="#CAFF33" stop-opacity="0"/>
</linearGradient>
</defs>
</svg>
